<svg xmlns="http://www.w3.org/2000/svg" viewBox="0 0 821.62 129.18"><defs><style>.cls-1,.cls-3,.cls-5,.cls-6,.cls-8{fill:none;}.cls-1,.cls-8{stroke:red;}.cls-1,.cls-5,.cls-6,.cls-8{stroke-linecap:round;stroke-linejoin:round;}.cls-1{stroke-width:8.46px;}.cls-2,.cls-4{fill:#0063ac;}.cls-3,.cls-5{stroke:#0063ac;}.cls-3{stroke-miterlimit:1;stroke-width:1.47px;}.cls-4,.cls-7{fill-rule:evenodd;}.cls-5,.cls-6,.cls-8{stroke-width:0.23px;}.cls-6{stroke:blue;}.cls-7{fill:red;}</style></defs><title>Logo-landscape</title><g id="Layer_2" data-name="Layer 2"><g id="Layer_1-2" data-name="Layer 1"><line class="cls-1" x1="4.23" y1="101.92" x2="156.81" y2="101.92"/><line class="cls-1" x1="263.13" y1="101.92" x2="388.23" y2="101.92"/><path class="cls-2" d="M434,49.76h11.81v1.61q0,4.55,1.07,6.41a3.83,3.83,0,0,0,3.62,1.86,4,4,0,0,0,3.22-1.41,5.82,5.82,0,0,0,1.18-3.85q0-4-5.76-7.7-.93-.64-1.43-1l-.61-.39q-7.77-5.23-9.67-7.88a15.57,15.57,0,0,1-2.08-4.51,19.87,19.87,0,0,1-.72-5.48q0-7.23,4.19-11.35T450.38,12q8,0,12.19,4t4.21,11.71q0,.32,0,.9t0,.9H455.15v-.68A10.72,10.72,0,0,0,454,23.37a3.61,3.61,0,0,0-3.28-1.86,3.66,3.66,0,0,0-2.94,1.31,5.15,5.15,0,0,0-1.11,3.45q0,3.51,6.3,7.45l1.75,1.15q.5.29,1.4.9,6.77,4.3,8.66,7.23a15.45,15.45,0,0,1,1.81,4.31,20.89,20.89,0,0,1,.63,5.24q0,8.27-4.3,12.75t-12.28,4.48q-8.38,0-12.58-4.28t-4.21-12.73q0-.54,0-1.13T434,49.76Z"/><path class="cls-3" d="M434,49.76h11.81v1.61q0,4.55,1.07,6.41a3.83,3.83,0,0,0,3.62,1.86,4,4,0,0,0,3.22-1.41,5.82,5.82,0,0,0,1.18-3.85q0-4-5.76-7.7-.93-.64-1.43-1l-.61-.39q-7.77-5.23-9.67-7.88a15.57,15.57,0,0,1-2.08-4.51,19.87,19.87,0,0,1-.72-5.48q0-7.23,4.19-11.35T450.38,12q8,0,12.19,4t4.21,11.71q0,.32,0,.9t0,.9H455.15v-.68A10.72,10.72,0,0,0,454,23.37a3.61,3.61,0,0,0-3.28-1.86,3.66,3.66,0,0,0-2.94,1.31,5.15,5.15,0,0,0-1.11,3.45q0,3.51,6.3,7.45l1.75,1.15q.5.29,1.4.9,6.77,4.3,8.66,7.23a15.45,15.45,0,0,1,1.81,4.31,20.89,20.89,0,0,1,.63,5.24q0,8.27-4.3,12.75t-12.28,4.48q-8.38,0-12.58-4.28t-4.21-12.73q0-.54,0-1.13T434,49.76Z"/><path class="cls-2" d="M493.74,53.91h10.85v1q0,7.27-3.79,10.94t-11.31,3.67a20.76,20.76,0,0,1-6.87-1.07,11.37,11.37,0,0,1-4.8-3,12.89,12.89,0,0,1-2.76-5.8,57.63,57.63,0,0,1-.82-11.56q0-8.77.84-12.24A12.88,12.88,0,0,1,478,30.17a12.33,12.33,0,0,1,5-3.19,21,21,0,0,1,7-1.07A19.32,19.32,0,0,1,497,27.08a11.49,11.49,0,0,1,4.83,3.45,11.79,11.79,0,0,1,2.26,4.62,42.37,42.37,0,0,1,.68,9.17v5H486a2.41,2.41,0,0,0,0,.47q-.14,2.61-.14,3.65,0,4.37.93,6.07a3.33,3.33,0,0,0,3.19,1.7,3.51,3.51,0,0,0,3-1.31,6.46,6.46,0,0,0,1-4q0-.54-.11-1.65A2.24,2.24,0,0,1,493.74,53.91Zm-7.48-11.78H494v-.21q.14-1.57.14-2.22a8.12,8.12,0,0,0-1-4.49,3.44,3.44,0,0,0-3.06-1.45,3.33,3.33,0,0,0-3,1.41,9,9,0,0,0-.91,4.67q0,.9,0,1.4T486.26,42.13Z"/><path class="cls-3" d="M493.74,53.91h10.85v1q0,7.27-3.79,10.94t-11.31,3.67a20.76,20.76,0,0,1-6.87-1.07,11.37,11.37,0,0,1-4.8-3,12.89,12.89,0,0,1-2.76-5.8,57.63,57.63,0,0,1-.82-11.56q0-8.77.84-12.24A12.88,12.88,0,0,1,478,30.17a12.33,12.33,0,0,1,5-3.19,21,21,0,0,1,7-1.07A19.32,19.32,0,0,1,497,27.08a11.49,11.49,0,0,1,4.83,3.45,11.79,11.79,0,0,1,2.26,4.62,42.37,42.37,0,0,1,.68,9.17v5H486a2.41,2.41,0,0,0,0,.47q-.14,2.61-.14,3.65,0,4.37.93,6.07a3.33,3.33,0,0,0,3.19,1.7,3.51,3.51,0,0,0,3-1.31,6.46,6.46,0,0,0,1-4q0-.54-.11-1.65A2.24,2.24,0,0,1,493.74,53.91Zm-7.48-11.78H494v-.21q.14-1.57.14-2.22a8.12,8.12,0,0,0-1-4.49,3.44,3.44,0,0,0-3.06-1.45,3.33,3.33,0,0,0-3,1.41,9,9,0,0,0-.91,4.67q0,.9,0,1.4T486.26,42.13Z"/><path class="cls-2" d="M524.92,68.44H513.42V13.31h11.49Z"/><path class="cls-3" d="M524.92,68.44H513.42V13.31h11.49Z"/><path class="cls-2" d="M536.39,68.44V35.83H531.7V27h4.69q0-.39,0-1.07t0-1q0-6.52,2.77-9.2t9.47-2.69q1,0,2.09.05t2.27.16v8.34l-.54-.05-.82,0a3.69,3.69,0,0,0-2.85.93,4.61,4.61,0,0,0-.84,3.11q0,.54,0,.82A3.14,3.14,0,0,0,548,27h5v8.81h-5V68.44Z"/><path class="cls-3" d="M536.39,68.44V35.83H531.7V27h4.69q0-.39,0-1.07t0-1q0-6.52,2.77-9.2t9.47-2.69q1,0,2.09.05t2.27.16v8.34l-.54-.05-.82,0a3.69,3.69,0,0,0-2.85.93,4.61,4.61,0,0,0-.84,3.11q0,.54,0,.82A3.14,3.14,0,0,0,548,27h5v8.81h-5V68.44Z"/><path class="cls-2" d="M580.3,49.76h11.81v1.61q0,4.55,1.07,6.41a3.83,3.83,0,0,0,3.62,1.86A4,4,0,0,0,600,58.22a5.82,5.82,0,0,0,1.18-3.85q0-4-5.76-7.7-.93-.64-1.43-1l-.61-.39q-7.77-5.23-9.67-7.88a15.57,15.57,0,0,1-2.08-4.51,19.87,19.87,0,0,1-.72-5.48q0-7.23,4.19-11.35T596.66,12q8,0,12.19,4t4.21,11.71q0,.32,0,.9t0,.9H601.42v-.68a10.72,10.72,0,0,0-1.13-5.48A3.61,3.61,0,0,0,597,21.51a3.66,3.66,0,0,0-2.94,1.31A5.15,5.15,0,0,0,593,26.27q0,3.51,6.3,7.45L601,34.86q.5.29,1.4.9,6.77,4.3,8.66,7.23a15.45,15.45,0,0,1,1.81,4.31,20.89,20.89,0,0,1,.63,5.24q0,8.27-4.3,12.75t-12.28,4.48q-8.38,0-12.58-4.28t-4.21-12.73q0-.54,0-1.13T580.3,49.76Z"/><path class="cls-3" d="M580.3,49.76h11.81v1.61q0,4.55,1.07,6.41a3.83,3.83,0,0,0,3.62,1.86A4,4,0,0,0,600,58.22a5.82,5.82,0,0,0,1.18-3.85q0-4-5.76-7.7-.93-.64-1.43-1l-.61-.39q-7.77-5.23-9.67-7.88a15.57,15.57,0,0,1-2.08-4.51,19.87,19.87,0,0,1-.72-5.48q0-7.23,4.19-11.35T596.66,12q8,0,12.19,4t4.21,11.71q0,.32,0,.9t0,.9H601.42v-.68a10.72,10.72,0,0,0-1.13-5.48A3.61,3.61,0,0,0,597,21.51a3.66,3.66,0,0,0-2.94,1.31A5.15,5.15,0,0,0,593,26.27q0,3.51,6.3,7.45L601,34.86q.5.29,1.4.9,6.77,4.3,8.66,7.23a15.45,15.45,0,0,1,1.81,4.31,20.89,20.89,0,0,1,.63,5.24q0,8.27-4.3,12.75t-12.28,4.48q-8.38,0-12.58-4.28t-4.21-12.73q0-.54,0-1.13T580.3,49.76Z"/><path class="cls-2" d="M640.16,68.3q-2.11.39-3.69.59a22.17,22.17,0,0,1-2.68.2A14,14,0,0,1,627.93,68a7.47,7.47,0,0,1-3.56-3.19,11.07,11.07,0,0,1-1.06-3.6,52,52,0,0,1-.3-6.61v-19h-4.48V27H623V15.57h11.64V27h5.51v8.56h-5.51v16.9q0,5.41.79,6.66t3,1.25a12.25,12.25,0,0,0,1.29-.11l.39,0Z"/><path class="cls-3" d="M640.16,68.3q-2.11.39-3.69.59a22.17,22.17,0,0,1-2.68.2A14,14,0,0,1,627.93,68a7.47,7.47,0,0,1-3.56-3.19,11.07,11.07,0,0,1-1.06-3.6,52,52,0,0,1-.3-6.61v-19h-4.48V27H623V15.57h11.64V27h5.51v8.56h-5.51v16.9q0,5.41.79,6.66t3,1.25a12.25,12.25,0,0,0,1.29-.11l.39,0Z"/><path class="cls-2" d="M646.27,47.75q0-12.1,3.47-17t11.92-4.87q8.45,0,11.92,4.83t3.47,17q0,12.1-3.47,17t-11.92,4.85q-8.48,0-11.94-4.82T646.27,47.75Zm11.74,0q0,8.74.77,10.94a3,3,0,0,0,5.76.09q.77-2.11.77-11t-.77-11a3,3,0,0,0-5.76.09Q658,39,658,47.75Z"/><path class="cls-3" d="M646.27,47.75q0-12.1,3.47-17t11.92-4.87q8.45,0,11.92,4.83t3.47,17q0,12.1-3.47,17t-11.92,4.85q-8.48,0-11.94-4.82T646.27,47.75Zm11.74,0q0,8.74.77,10.94a3,3,0,0,0,5.76.09q.77-2.11.77-11t-.77-11a3,3,0,0,0-5.76.09Q658,39,658,47.75Z"/><path class="cls-2" d="M685.21,68.44V27h10.63v5.8A15.64,15.64,0,0,1,700,28.1a10.55,10.55,0,0,1,5.14-1.9V39.34q-1-.21-1.84-.32a13.18,13.18,0,0,0-1.59-.11,4.05,4.05,0,0,0-3.88,2q-1.09,2-1.09,7.7V68.44Z"/><path class="cls-3" d="M685.21,68.44V27h10.63v5.8A15.64,15.64,0,0,1,700,28.1a10.55,10.55,0,0,1,5.14-1.9V39.34q-1-.21-1.84-.32a13.18,13.18,0,0,0-1.59-.11,4.05,4.05,0,0,0-3.88,2q-1.09,2-1.09,7.7V68.44Z"/><path class="cls-2" d="M732.49,68.44l-.68-3.79A15.17,15.17,0,0,1,727,68.1a13.63,13.63,0,0,1-5.64,1.16,9.88,9.88,0,0,1-7.71-3.15q-2.85-3.15-2.85-8.52a12,12,0,0,1,2.42-7.73q2.42-3,7.93-5.26l3.58-1.32q6.48-2.36,6.48-5.33a3.81,3.81,0,0,0-.93-2.77,3.6,3.6,0,0,0-2.69-.95,3.78,3.78,0,0,0-3.13,1.27,6.22,6.22,0,0,0-1,3.92v.29h-11.6q0-7,3.9-10.44t11.85-3.42a28,28,0,0,1,6.39.66,14.58,14.58,0,0,1,4.71,1.92,9.1,9.1,0,0,1,3.42,4q1,2.33,1,8.48v16a60.71,60.71,0,0,0,.34,7.43,13.69,13.69,0,0,0,1.13,4.17ZM731,48.5a16.4,16.4,0,0,0-6.53,3.11,6,6,0,0,0-2.06,4.65,4.65,4.65,0,0,0,1,3.15,3.44,3.44,0,0,0,2.74,1.18,4.11,4.11,0,0,0,3.69-1.72Q731,57.17,731,53.12Z"/><path class="cls-3" d="M732.49,68.44l-.68-3.79A15.17,15.17,0,0,1,727,68.1a13.63,13.63,0,0,1-5.64,1.16,9.88,9.88,0,0,1-7.71-3.15q-2.85-3.15-2.85-8.52a12,12,0,0,1,2.42-7.73q2.42-3,7.93-5.26l3.58-1.32q6.48-2.36,6.48-5.33a3.81,3.81,0,0,0-.93-2.77,3.6,3.6,0,0,0-2.69-.95,3.78,3.78,0,0,0-3.13,1.27,6.22,6.22,0,0,0-1,3.92v.29h-11.6q0-7,3.9-10.44t11.85-3.42a28,28,0,0,1,6.39.66,14.58,14.58,0,0,1,4.71,1.92,9.1,9.1,0,0,1,3.42,4q1,2.33,1,8.48v16a60.71,60.71,0,0,0,.34,7.43,13.69,13.69,0,0,0,1.13,4.17ZM731,48.5a16.4,16.4,0,0,0-6.53,3.11,6,6,0,0,0-2.06,4.65,4.65,4.65,0,0,0,1,3.15,3.44,3.44,0,0,0,2.74,1.18,4.11,4.11,0,0,0,3.69-1.72Q731,57.17,731,53.12Z"/><path class="cls-2" d="M781.71,27V64.11a42.37,42.37,0,0,1-.61,8.43,11.87,11.87,0,0,1-2,4.64,12.26,12.26,0,0,1-5.35,3.88,22.23,22.23,0,0,1-8.07,1.31q-7.27,0-10.81-3t-3.54-9.13H762.7a5.52,5.52,0,0,0,.84,3.4,3.13,3.13,0,0,0,2.63,1.07,3.31,3.31,0,0,0,3.08-1.41q.86-1.41.86-5.53V62.93a17.68,17.68,0,0,1-4.35,3,10,10,0,0,1-4.21.95,9.07,9.07,0,0,1-5.33-1.63,10.54,10.54,0,0,1-3.62-4.67,17.07,17.07,0,0,1-1-4.64,76.67,76.67,0,0,1-.32-7.82q0-4.62.23-8.23a56.31,56.31,0,0,1,.63-5.87,9.88,9.88,0,0,1,3.28-5.73,8.82,8.82,0,0,1,6-2.26,10.18,10.18,0,0,1,5.14,1.36,16.53,16.53,0,0,1,4.64,4.22V27ZM762.91,42.27v3q0,8.13.77,10.33a2.82,2.82,0,0,0,2.77,2.2,2.87,2.87,0,0,0,2.85-2q.81-2,.81-8.25V45.93q0-6.73-.77-8.48a2.81,2.81,0,0,0-2.81-1.75,2.93,2.93,0,0,0-2.74,1.56A10.76,10.76,0,0,0,762.91,42.27Z"/><path class="cls-3" d="M781.71,27V64.11a42.37,42.37,0,0,1-.61,8.43,11.87,11.87,0,0,1-2,4.64,12.26,12.26,0,0,1-5.35,3.88,22.23,22.23,0,0,1-8.07,1.31q-7.27,0-10.81-3t-3.54-9.13H762.7a5.52,5.52,0,0,0,.84,3.4,3.13,3.13,0,0,0,2.63,1.07,3.31,3.31,0,0,0,3.08-1.41q.86-1.41.86-5.53V62.93a17.68,17.68,0,0,1-4.35,3,10,10,0,0,1-4.21.95,9.07,9.07,0,0,1-5.33-1.63,10.54,10.54,0,0,1-3.62-4.67,17.07,17.07,0,0,1-1-4.64,76.67,76.67,0,0,1-.32-7.82q0-4.62.23-8.23a56.31,56.31,0,0,1,.63-5.87,9.88,9.88,0,0,1,3.28-5.73,8.82,8.82,0,0,1,6-2.26,10.18,10.18,0,0,1,5.14,1.36,16.53,16.53,0,0,1,4.64,4.22V27ZM762.91,42.27v3q0,8.13.77,10.33a2.82,2.82,0,0,0,2.77,2.2,2.87,2.87,0,0,0,2.85-2q.81-2,.81-8.25V45.93q0-6.73-.77-8.48a2.81,2.81,0,0,0-2.81-1.75,2.93,2.93,0,0,0-2.74,1.56A10.76,10.76,0,0,0,762.91,42.27Z"/><path class="cls-2" d="M809.82,53.91h10.85v1q0,7.27-3.79,10.94t-11.31,3.67a20.76,20.76,0,0,1-6.87-1.07,11.37,11.37,0,0,1-4.8-3,12.89,12.89,0,0,1-2.76-5.8,57.6,57.6,0,0,1-.82-11.56q0-8.77.84-12.24A12.88,12.88,0,0,1,794,30.17,12.33,12.33,0,0,1,799,27a21,21,0,0,1,7-1.07,19.33,19.33,0,0,1,7.05,1.16A11.49,11.49,0,0,1,818,30.53a11.79,11.79,0,0,1,2.26,4.62,42.37,42.37,0,0,1,.68,9.17v5H802.06a2.5,2.5,0,0,0,0,.47q-.14,2.61-.14,3.65,0,4.37.93,6.07a3.33,3.33,0,0,0,3.19,1.7,3.51,3.51,0,0,0,3-1.31,6.46,6.46,0,0,0,1-4q0-.54-.11-1.65A2.3,2.3,0,0,1,809.82,53.91Zm-7.48-11.78h7.77v-.21q.14-1.57.14-2.22a8.12,8.12,0,0,0-1-4.49,3.44,3.44,0,0,0-3.06-1.45,3.33,3.33,0,0,0-3,1.41,9,9,0,0,0-.91,4.67q0,.9,0,1.4T802.34,42.13Z"/><path class="cls-3" d="M809.82,53.91h10.85v1q0,7.27-3.79,10.94t-11.31,3.67a20.76,20.76,0,0,1-6.87-1.07,11.37,11.37,0,0,1-4.8-3,12.89,12.89,0,0,1-2.76-5.8,57.6,57.6,0,0,1-.82-11.56q0-8.77.84-12.24A12.88,12.88,0,0,1,794,30.17,12.33,12.33,0,0,1,799,27a21,21,0,0,1,7-1.07,19.33,19.33,0,0,1,7.05,1.16A11.49,11.49,0,0,1,818,30.53a11.79,11.79,0,0,1,2.26,4.62,42.37,42.37,0,0,1,.68,9.17v5H802.06a2.5,2.5,0,0,0,0,.47q-.14,2.61-.14,3.65,0,4.37.93,6.07a3.33,3.33,0,0,0,3.19,1.7,3.51,3.51,0,0,0,3-1.31,6.46,6.46,0,0,0,1-4q0-.54-.11-1.65A2.3,2.3,0,0,1,809.82,53.91Zm-7.48-11.78h7.77v-.21q.14-1.57.14-2.22a8.12,8.12,0,0,0-1-4.49,3.44,3.44,0,0,0-3.06-1.45,3.33,3.33,0,0,0-3,1.41,9,9,0,0,0-.91,4.67q0,.9,0,1.4T802.34,42.13Z"/><polyline class="cls-4" points="4.11 2.27 4.11 15.95 15.69 15.95 15.69 69.53 31.47 69.53 31.47 15.95 45.09 15.95 45.09 69.53 59.79 69.53 59.79 42.23 71.37 42.23 71.37 69.53 84.99 69.53 84.99 2.27 71.37 2.27 71.37 26.45 59.79 26.45 59.79 2.27 4.11 2.27"/><polygon class="cls-5" points="4.11 2.27 4.11 15.95 15.69 15.95 15.69 69.53 31.47 69.53 31.47 15.95 45.09 15.95 45.09 69.53 59.79 69.53 59.79 42.23 71.37 42.23 71.37 69.53 84.99 69.53 84.99 2.27 71.37 2.27 71.37 26.45 59.79 26.45 59.79 2.27 4.11 2.27"/><polyline class="cls-4" points="89.31 2.27 89.31 69.53 127.17 69.53 127.17 55.84 102.99 55.84 102.99 42.23 127.17 42.23 127.17 26.45 102.99 26.45 102.99 15.95 127.17 15.95 127.17 2.27 89.31 2.27"/><polygon class="cls-5" points="89.31 2.27 89.31 69.53 127.17 69.53 127.17 55.84 102.99 55.84 102.99 42.23 127.17 42.23 127.17 26.45 102.99 26.45 102.99 15.95 127.17 15.95 127.17 2.27 89.31 2.27"/><polyline class="cls-4" points="138.69 2.27 138.69 69.53 168.09 69.53 168.09 55.84 153.39 55.84 153.39 2.27 138.69 2.27"/><polygon class="cls-5" points="138.69 2.27 138.69 69.53 168.09 69.53 168.09 55.84 153.39 55.84 153.39 2.27 138.69 2.27"/><path class="cls-4" d="M188.07.16a20,20,0,0,0-21,19,12.27,12.27,0,0,0,0,2.1v27.3a21.7,21.7,0,0,0,13.62,19.92V21.22a7.22,7.22,0,0,1,7-7.38h.36a7.13,7.13,0,0,1,7.32,7V68.44a20.25,20.25,0,0,0,13.68-19.92V21.22A19.71,19.71,0,0,0,191,.16a23.06,23.06,0,0,0-2.88,0"/><path class="cls-5" d="M188.07.16a20,20,0,0,0-21,19,12.27,12.27,0,0,0,0,2.1v27.3a21.7,21.7,0,0,0,13.62,19.92V21.22a7.22,7.22,0,0,1,7-7.38h.36a7.13,7.13,0,0,1,7.32,7V68.44a20.25,20.25,0,0,0,13.68-19.92V21.22A19.71,19.71,0,0,0,191,.16,23.06,23.06,0,0,0,188.07.16Z"/><line class="cls-6" x1="233.19" y1="0.16" x2="212.19" y2="21.22"/><line class="cls-6" x1="233.19" y1="0.16" x2="254.25" y2="21.22"/><path class="cls-4" d="M233.19.16a19.69,19.69,0,0,0-21,18.12,24,24,0,0,0,0,2.94v27.3a22.81,22.81,0,0,0,13.68,19.92V21.22a7.19,7.19,0,0,1,7-7.38h.3a7.19,7.19,0,0,1,7.38,7v6.66h13.68v-6.3A19.91,19.91,0,0,0,235.65.16h-2.46"/><path class="cls-5" d="M233.19.16a19.69,19.69,0,0,0-21,18.12,24,24,0,0,0,0,2.94v27.3a22.81,22.81,0,0,0,13.68,19.92V21.22a7.19,7.19,0,0,1,7-7.38h.3a7.19,7.19,0,0,1,7.38,7v6.66h13.68v-6.3A19.91,19.91,0,0,0,235.65.16Z"/><path class="cls-4" d="M240.57,41.14v27.3a21.85,21.85,0,0,0,13.68-19.92V41.14H240.57"/><path class="cls-5" d="M240.57,41.14v27.3a21.85,21.85,0,0,0,13.68-19.92V41.14Z"/><polyline class="cls-4" points="256.47 2.27 256.47 69.53 270.09 69.53 270.09 39.05 283.77 69.53 297.39 69.53 283.77 34.84 297.39 2.27 283.77 2.27 270.09 31.73 270.09 2.27 256.47 2.27"/><polygon class="cls-5" points="256.47 2.27 256.47 69.53 270.09 69.53 270.09 39.05 283.77 69.53 297.39 69.53 283.77 34.84 297.39 2.27 283.77 2.27 270.09 31.73 270.09 2.27 256.47 2.27"/><path class="cls-4" d="M304.65,2.26V48.52a19.8,19.8,0,0,0,18.54,21,16.83,16.83,0,0,0,2.46,0,19.82,19.82,0,0,0,21-18.6,16,16,0,0,0,0-2.4V2.26H333V48.52a7.44,7.44,0,0,1-14.7,0V2.26H304.65"/><path class="cls-5" d="M304.65,2.26V48.52a19.8,19.8,0,0,0,18.54,21,16.83,16.83,0,0,0,2.46,0,19.82,19.82,0,0,0,21-18.6,16,16,0,0,0,0-2.4V2.26H333V48.52a7.44,7.44,0,0,1-14.7,0V2.26Z"/><path class="cls-4" d="M350.67,2.44v26h13.62V14.86l8.7.06a7.22,7.22,0,0,1,6.06,7.14A6.58,6.58,0,0,1,373,28.54l-22.32-.06V69.64h13.68V43.42h8.4a19.92,19.92,0,0,0,19.92-20c0-11.58-8.88-21-19.92-21H350.67"/><path class="cls-5" d="M350.67,2.44v26h13.62V14.86l8.7.06a7.22,7.22,0,0,1,6.06,7.14A6.58,6.58,0,0,1,373,28.54l-22.32-.06V69.64h13.68V43.42h8.4a19.92,19.92,0,0,0,19.92-20c0-11.58-8.88-21-19.92-21Z"/><path class="cls-7" d="M209.31,118.12h-6.06l4.38-21.84a7.45,7.45,0,0,1,2.28-14.58,7.45,7.45,0,0,1,2.28,14.58l4.38,21.84h-7.26m.6-46.32H193V27.1a26.09,26.09,0,0,0-10.14,19.44V71.8h-9.42v46.32a11.47,11.47,0,0,0,12,10.92h48.72a11.42,11.42,0,0,0,12.12-10.68.45.45,0,0,0,.06-.24l.06-46.32h-8.28V46.54A26.09,26.09,0,0,0,228,27.1V71.8Z"/><path class="cls-8" d="M209.91,71.8H193V27.1a26.09,26.09,0,0,0-10.14,19.44V71.8h-9.42v46.32a11.47,11.47,0,0,0,12,10.92h48.72a11.42,11.42,0,0,0,12.12-10.68.45.45,0,0,0,.06-.24l.06-46.32h-8.28V46.54A26.09,26.09,0,0,0,228,27.1V71.8Z"/><path class="cls-8" d="M209.31,118.12h-6.06l4.38-21.84a7.45,7.45,0,0,1,2.28-14.58,7.45,7.45,0,0,1,2.28,14.58l4.38,21.84Z"/></g></g></svg>