<svg width="176" height="93" viewBox="0 0 176 93" fill="none" xmlns="http://www.w3.org/2000/svg">
<g id="Logo-landscape">
<path id="Path" d="M2 44.8182H70.5455" stroke="#FF0000" stroke-width="3.39458" stroke-linecap="round" stroke-linejoin="round"/>
<path id="Path_2" d="M118 44.8182H173.364" stroke="#FF0000" stroke-width="3.39458" stroke-linecap="round" stroke-linejoin="round"/>
<path id="Path_3" fill-rule="evenodd" clip-rule="evenodd" d="M2 1.31818V7.48459H7.09573V31.6364H14.0397V7.48459H20.0331V31.6364H26.5018V19.3306H31.5975V31.6364H37.5909V1.31818H31.5975V12.2176H26.5018V1.31818H2Z" fill="white"/>
<path id="Path_4" fill-rule="evenodd" clip-rule="evenodd" d="M2 1.31818V7.48459H7.09573V31.6364H14.0397V7.48459H20.0331V31.6364H26.5018V19.3306H31.5975V31.6364H37.5909V1.31818H31.5975V12.2176H26.5018V1.31818H2Z" fill="white"/>
<path id="Path_5" fill-rule="evenodd" clip-rule="evenodd" d="M40.2271 1.31818V31.6364H57.3634V25.4654H46.419V19.3306H57.3634V12.2176H46.419V7.48459H57.3634V1.31818H40.2271Z" fill="white"/>
<path id="Path_6" fill-rule="evenodd" clip-rule="evenodd" d="M40.2271 1.31818V31.6364H57.3634V25.4654H46.419V19.3306H57.3634V12.2176H46.419V7.48459H57.3634V1.31818H40.2271Z" fill="white"/>
<path id="Path_7" fill-rule="evenodd" clip-rule="evenodd" d="M61.3184 1.31818V31.6364H74.5002V25.4654H67.9093V1.31818H61.3184Z" fill="white"/>
<path id="Path_8" fill-rule="evenodd" clip-rule="evenodd" d="M61.3184 1.31818V31.6364H74.5002V25.4654H67.9093V1.31818H61.3184Z" fill="white"/>
<path id="Path_9" fill-rule="evenodd" clip-rule="evenodd" d="M83.7302 0.0199586C81.403 -0.100645 79.124 0.719988 77.396 2.30078C75.6681 3.88157 74.6332 6.0926 74.5197 8.44599C74.4934 8.75585 74.4934 9.06742 74.5197 9.37729V21.4842C74.5588 25.38 76.9172 28.8677 80.4934 30.3182V9.35955C80.454 7.60114 81.8248 6.13984 83.5635 6.0867H83.7214C84.5553 6.06409 85.3636 6.37932 85.9665 6.96229C86.5694 7.54527 86.917 8.34765 86.9319 9.19102V30.3004C90.6408 29.0173 93.0791 25.4272 92.9318 21.4664V9.35955C93.2724 4.57801 89.7406 0.411325 85.0153 0.0199586C84.5946 -0.00665285 84.1727 -0.00665285 83.7521 0.0199586" fill="white"/>
<path id="Path_10" fill-rule="evenodd" clip-rule="evenodd" d="M83.7302 0.0206578C81.403 -0.0999429 79.124 0.720671 77.396 2.30143C75.6681 3.88218 74.6332 6.09316 74.5197 8.44649C74.4934 8.75635 74.4934 9.06791 74.5197 9.37777V21.4844C74.5588 25.3801 76.9172 28.8677 80.4934 30.3182V9.36003C80.454 7.60166 81.8248 6.1404 83.5635 6.08726H83.7214C84.5553 6.06465 85.3636 6.37987 85.9665 6.96283C86.5694 7.54579 86.917 8.34816 86.9319 9.19151V30.3004C90.6408 29.0173 93.0791 25.4274 92.9318 21.4666V9.36003C93.2724 4.5786 89.7406 0.412015 85.0153 0.0206578C84.5873 -0.00688593 84.1581 -0.00688593 83.7302 0.0206578Z" fill="white"/>
<path id="Path_11" fill-rule="evenodd" clip-rule="evenodd" d="M103.5 0L94.2729 9.22727L103.5 0Z" fill="white"/>
<path id="Path_12" fill-rule="evenodd" clip-rule="evenodd" d="M103.5 0L112.727 9.22727L103.5 0Z" fill="white"/>
<path id="Path_13" fill-rule="evenodd" clip-rule="evenodd" d="M103.494 0.0214918C98.7669 -0.312123 94.659 3.27741 94.2927 8.06156C94.2664 8.49599 94.2664 8.93165 94.2927 9.36608V21.4794C94.4589 25.3435 96.785 28.7737 100.286 30.3182V9.36608C100.264 8.51988 100.575 7.69936 101.15 7.08519C101.725 6.47102 102.518 6.11354 103.353 6.09148H103.485C104.32 6.06882 105.131 6.3834 105.737 6.96595C106.344 7.54849 106.697 8.35125 106.718 9.19747V12.1526H112.712V9.3572C112.995 4.50796 109.358 0.337561 104.571 0.0214918H103.494Z" fill="white"/>
<path id="Path_14" fill-rule="evenodd" clip-rule="evenodd" d="M103.494 0.0214918C98.7669 -0.312123 94.659 3.27741 94.2927 8.06156C94.2664 8.49599 94.2664 8.93165 94.2927 9.36608V21.4794C94.4589 25.3435 96.785 28.7737 100.286 30.3182V9.36608C100.264 8.51988 100.575 7.69936 101.15 7.08519C101.725 6.47102 102.518 6.11354 103.353 6.09148H103.485C104.32 6.06882 105.131 6.3834 105.737 6.96595C106.344 7.54849 106.697 8.35125 106.718 9.19747V12.1526H112.712V9.3572C112.995 4.50796 109.358 0.337561 104.571 0.0214918H103.494Z" fill="white"/>
<path id="Path_15" fill-rule="evenodd" clip-rule="evenodd" d="M107.455 18.4545V30.3182C111.382 28.8907 113.978 25.4801 114.045 21.6616V18.4545H107.455Z" fill="white"/>
<path id="Path_16" fill-rule="evenodd" clip-rule="evenodd" d="M107.455 18.4545V30.3182C111.382 28.8907 113.978 25.4801 114.045 21.6616V18.4545H107.455Z" fill="white"/>
<path id="Path_17" fill-rule="evenodd" clip-rule="evenodd" d="M114.045 1.31818V31.6364H120.188V17.8972L126.357 31.6364H132.5L126.357 15.9995L132.5 1.31818H126.357L120.188 14.5976V1.31818H114.045Z" fill="white"/>
<path id="Path_18" fill-rule="evenodd" clip-rule="evenodd" d="M114.045 1.31818V31.6364H120.188V17.8972L126.357 31.6364H132.5L126.357 15.9995L132.5 1.31818H126.357L120.188 14.5976V1.31818H114.045Z" fill="white"/>
<path id="Path_19" fill-rule="evenodd" clip-rule="evenodd" d="M136.472 1.31818V22.1564C136.328 24.5186 137.103 26.8427 138.628 28.6169C140.153 30.3912 142.302 31.4701 144.602 31.6161C144.961 31.6431 145.321 31.6431 145.68 31.6161C147.984 31.7614 150.249 30.9599 151.976 29.3883C153.704 27.8166 154.752 25.6038 154.889 23.2375C154.916 22.8777 154.916 22.5163 154.889 22.1564V1.31818H148.904V22.1564C148.654 23.7868 147.287 24.9882 145.68 24.9882C144.074 24.9882 142.706 23.7868 142.457 22.1564V1.31818H136.472Z" fill="white"/>
<path id="Path_20" fill-rule="evenodd" clip-rule="evenodd" d="M136.472 1.31818V22.1564C136.328 24.5186 137.103 26.8427 138.628 28.6169C140.153 30.3912 142.302 31.4701 144.602 31.6161C144.961 31.6431 145.321 31.6431 145.68 31.6161C147.984 31.7614 150.249 30.9599 151.976 29.3883C153.704 27.8166 154.752 25.6038 154.889 23.2375C154.916 22.8777 154.916 22.5163 154.889 22.1564V1.31818H148.904V22.1564C148.654 23.7868 147.287 24.9882 145.68 24.9882C144.074 24.9882 142.706 23.7868 142.457 22.1564V1.31818H136.472Z" fill="white"/>
<path id="Path_21" fill-rule="evenodd" clip-rule="evenodd" d="M156.227 1.3272V13.054H162.21V6.92899L166.032 6.95605C167.569 7.21293 168.697 8.57751 168.694 10.1764C168.676 11.7091 167.524 12.9757 166.036 13.0991L156.231 13.072V31.6364H162.241V19.8104H165.931C168.258 19.8104 170.489 18.8589 172.131 17.1661C173.773 15.4734 174.691 13.1789 174.682 10.7898C174.682 5.56688 170.781 1.31818 165.931 1.31818H156.227" fill="white"/>
<path id="Path_22" fill-rule="evenodd" clip-rule="evenodd" d="M156.227 1.3272V13.054H162.21V6.92899L166.032 6.95605C167.569 7.21293 168.697 8.57751 168.694 10.1764C168.676 11.7091 167.524 12.9757 166.036 13.0991L156.231 13.072V31.6364H162.241V19.8104H165.931C168.258 19.8104 170.489 18.8589 172.131 17.1661C173.773 15.4734 174.691 13.1789 174.682 10.7898C174.682 5.56688 170.781 1.31818 165.931 1.31818L156.227 1.3272Z" fill="white"/>
<path id="Shape" fill-rule="evenodd" clip-rule="evenodd" d="M93.338 53.0485H90.6008L92.5792 43.1663C90.9722 42.6795 89.9693 41.0805 90.2287 39.4188C90.488 37.7572 91.9304 36.5413 93.609 36.5691C95.2876 36.5413 96.7299 37.7572 96.9893 39.4188C97.2487 41.0805 96.2458 42.6795 94.6388 43.1663L96.6172 53.0485H93.338ZM93.609 32.0896H85.9711V11.8636C83.229 13.9796 81.5541 17.1963 81.3911 20.6599V32.0896H77.1362V53.0485C77.2006 54.4239 77.8079 55.7173 78.8244 56.644C79.841 57.5707 81.1835 58.0548 82.5564 57.9896H104.562C105.928 58.0764 107.272 57.6159 108.299 56.7096C109.326 55.8032 109.951 54.5253 110.037 53.1571C110.056 53.1242 110.065 53.0866 110.064 53.0485L110.091 32.0896H106.351V20.6599C106.19 17.1978 104.519 13.9814 101.78 11.8636V32.0896H93.609Z" fill="#FF0000"/>
<path id="Path_23" fill-rule="evenodd" clip-rule="evenodd" d="M93.609 32.0896H85.9711V11.8636C83.229 13.9796 81.5541 17.1963 81.3911 20.6599V32.0896H77.1362V53.0485C77.2006 54.4239 77.8079 55.7173 78.8244 56.644C79.841 57.5707 81.1835 58.0548 82.5564 57.9896H104.562C105.928 58.0764 107.272 57.6159 108.299 56.7096C109.326 55.8032 109.951 54.5253 110.037 53.1571C110.056 53.1242 110.065 53.0866 110.064 53.0485L110.091 32.0896H106.351V20.6599C106.19 17.1978 104.519 13.9814 101.78 11.8636V32.0896H93.609Z" stroke="#FF0000" stroke-width="0.66875" stroke-linecap="round" stroke-linejoin="round"/>
<path id="Path_24" fill-rule="evenodd" clip-rule="evenodd" d="M93.3528 52.7273H90.7161L92.6218 43.2418C91.0738 42.7745 90.1077 41.2398 90.3576 39.6448C90.6074 38.0499 91.9968 36.8828 93.6138 36.9095C95.2308 36.8828 96.6202 38.0499 96.87 39.6448C97.1199 41.2398 96.1538 42.7745 94.6058 43.2418L96.5116 52.7273H93.3528Z" stroke="#FF0000" stroke-width="0.66875" stroke-linecap="round" stroke-linejoin="round"/>
<path id="Path_25" fill-rule="evenodd" clip-rule="evenodd" d="M2.06518 78.2291H7.1968V78.9637C7.1968 80.3477 7.35178 81.3226 7.66174 81.8884C7.98769 82.4646 8.59877 82.7943 9.23468 82.737C9.77062 82.7608 10.287 82.5234 10.6338 82.0937C10.9983 81.5909 11.1801 80.968 11.1465 80.3371C11.1465 79.1203 10.3123 77.9492 8.64374 76.8238C8.37434 76.6291 8.16722 76.477 8.02238 76.3675L7.75733 76.1895C5.50654 74.5987 4.10595 73.4002 3.55556 72.5941C3.15139 71.9634 2.84624 71.2686 2.65177 70.5363C2.43707 69.7223 2.33177 68.8807 2.33892 68.036C2.33892 65.8368 2.9458 64.1105 4.15954 62.8573C5.37329 61.6041 7.04762 60.9851 9.18254 61.0003C11.5 61.0003 13.2655 61.6086 14.4793 62.8254C15.693 64.0421 16.3028 65.8231 16.3086 68.1683C16.3086 68.2656 16.3086 68.4025 16.3086 68.5789C16.3086 68.7554 16.3086 68.8922 16.3086 68.9896H11.2552V68.6793C11.301 67.8171 11.1285 66.9576 10.7555 66.1881C10.47 65.6464 9.91947 65.3186 9.33027 65.3394C8.83939 65.3208 8.36787 65.5414 8.0528 65.9371C7.71571 66.3831 7.54432 66.9425 7.57049 67.5113C7.57049 68.5789 8.48297 69.712 10.3079 70.9105L11.0683 71.4352C11.2132 71.5234 11.4159 71.6603 11.6767 71.8458C13.6378 73.1538 14.8921 74.2534 15.4396 75.1447C15.7952 75.7545 16.0604 76.4176 16.226 77.1112C16.4132 77.8928 16.5052 78.6962 16.4998 79.5021C16.4998 82.0177 15.877 83.9568 14.6314 85.3195C13.3857 86.6823 11.6071 87.3636 9.29551 87.3636C6.86802 87.3636 5.04595 86.7127 3.82931 85.4108C2.61267 84.1089 2.0029 82.1728 2 79.6025C2 79.4382 2 79.2663 2 79.0869C2 78.9074 2.02173 78.6215 2.06518 78.2291Z" fill="white"/>
<path id="Shape_2" fill-rule="evenodd" clip-rule="evenodd" d="M28.871 80.2861H33.5478V80.7394C33.5478 82.9366 33.0033 84.5898 31.9142 85.699C30.8251 86.8082 29.2 87.3628 27.0391 87.3628C26.0331 87.3773 25.032 87.2133 24.0778 86.8777C23.2902 86.615 22.5785 86.1472 22.0088 85.5176C21.4077 84.7608 20.9984 83.8563 20.8191 82.8883C20.5342 81.1583 20.4158 79.4026 20.4657 77.6476C20.4657 74.9971 20.5864 73.1475 20.8278 72.0987C21.0351 71.1429 21.468 70.2573 22.0864 69.5237C22.6822 68.8644 23.422 68.368 24.2416 68.0776C25.214 67.7374 26.2343 67.5734 27.2589 67.5925C28.2872 67.5718 29.3102 67.7517 30.2762 68.1229C31.0885 68.4435 31.8064 68.9828 32.3581 69.687C32.8255 70.3012 33.1581 71.0164 33.3323 71.7814C33.5731 73.1518 33.6714 74.5457 33.6254 75.9385V78.2052H25.5347C25.5281 78.2761 25.5281 78.3475 25.5347 78.4183C25.4945 79.2071 25.4744 79.7587 25.4744 80.073C25.4744 81.3937 25.608 82.311 25.8753 82.8248C26.1496 83.3437 26.6877 83.6453 27.2503 83.5955C27.7481 83.634 28.2319 83.4118 28.5434 83.0016C28.8716 82.4629 29.023 81.826 28.9745 81.1882C28.9745 81.025 28.9587 80.7757 28.9271 80.4402C28.9044 80.3905 28.8857 80.339 28.871 80.2861ZM25.6468 74.9457H28.9831V74.8505C29.0233 74.376 29.0434 74.0405 29.0434 73.8441C29.0893 73.1361 28.9396 72.4292 28.6124 71.8086C28.3128 71.3613 27.8123 71.1118 27.2934 71.1512C26.785 71.1075 26.2927 71.3509 26.0003 71.7905C25.6913 72.4464 25.5558 73.1776 25.608 73.9076C25.608 74.1796 25.608 74.3911 25.608 74.5422C25.608 74.6934 25.621 74.8278 25.6468 74.9457Z" fill="white"/>
<path id="Path_26" fill-rule="evenodd" clip-rule="evenodd" d="M42.8635 86.0455H37.5908V61H42.859L42.8635 86.0455Z" fill="white"/>
<path id="Path_27" fill-rule="evenodd" clip-rule="evenodd" d="M47.5317 86.0455V71.303H45.5V67.3111H47.5317C47.5317 67.1936 47.5317 67.0323 47.5317 66.8274C47.5317 66.6224 47.5317 66.4717 47.5317 66.3753C47.5317 64.4102 47.9317 63.0238 48.7317 62.2161C49.5317 61.4084 50.8992 61.003 52.8342 61C53.123 61 53.4248 61.0075 53.7396 61.0226C54.0544 61.0377 54.3822 61.0618 54.7229 61.0949V64.8653L54.489 64.8427H54.1338C53.6838 64.7942 53.2351 64.947 52.8991 65.2632C52.6198 65.6709 52.4906 66.1701 52.5353 66.6691C52.5353 66.8319 52.5353 66.9555 52.5353 67.0398C52.5356 67.1309 52.5443 67.2218 52.5612 67.3111H54.7273V71.294H52.5612V86.0455H47.5317Z" fill="white"/>
<path id="Path_28" fill-rule="evenodd" clip-rule="evenodd" d="M67.983 78.2321H73.1147V78.9668C73.1147 80.3511 73.2697 81.3261 73.5796 81.892C73.9056 82.4683 74.5166 82.7981 75.1526 82.7408C75.6862 82.7606 76.1989 82.5217 76.543 82.0928C76.9075 81.5899 77.0893 80.9669 77.0557 80.3359C77.0557 79.1189 76.2215 77.9476 74.5529 76.822C74.2835 76.6273 74.0764 76.4752 73.9316 76.3656L73.6665 76.1877C71.4157 74.5965 70.0151 73.3979 69.4647 72.5916C69.0606 71.9608 68.7554 71.2659 68.561 70.5335C68.3462 69.7193 68.2409 68.8776 68.2481 68.0327C68.2481 65.8331 68.855 64.1066 70.0687 62.8532C71.2825 61.5997 72.9568 60.9821 75.0917 61.0004C77.4091 61.0004 79.1747 61.6089 80.3885 62.8258C81.6022 64.0427 82.212 65.824 82.2178 68.1696C82.2178 68.267 82.2178 68.4039 82.2178 68.5803C82.2178 68.7568 82.2178 68.8937 82.2178 68.9911H77.16V68.6807C77.21 67.8162 77.0406 66.9532 76.669 66.1799C76.3805 65.6402 75.8283 65.3159 75.2395 65.3403C74.7486 65.3216 74.277 65.5423 73.962 65.9381C73.6326 66.3874 73.4691 66.9465 73.5014 67.5125C73.5014 68.5803 74.4139 69.7136 76.2388 70.9123L76.9775 71.4325C77.1224 71.5207 77.3251 71.6576 77.5858 71.8432C79.5469 73.1514 80.8013 74.2512 81.3487 75.1426C81.7044 75.7526 81.9696 76.4158 82.1352 77.1095C82.3224 77.8912 82.4143 78.6947 82.409 79.5008C82.409 82.0168 81.7862 83.9562 80.5405 85.3192C79.2949 86.6822 77.5163 87.3636 75.2047 87.3636C72.7772 87.3636 70.9551 86.7126 69.7385 85.4105C68.5218 84.1084 67.9121 82.1719 67.9092 79.6012C67.9092 79.4369 67.9092 79.265 67.9092 79.0855C67.9092 78.906 67.9338 78.6215 67.983 78.2321Z" fill="white"/>
<path id="Path_29" fill-rule="evenodd" clip-rule="evenodd" d="M94.2727 85.6924C93.6726 85.8076 93.1479 85.8948 92.6985 85.9539C92.3195 86.0075 91.9377 86.0371 91.5553 86.0426C90.6983 86.0698 89.8457 85.905 89.0554 85.5594C88.4138 85.2736 87.8802 84.7768 87.5367 84.1453C87.2997 83.644 87.1468 83.1043 87.0845 82.5495C86.9821 81.5766 86.9393 80.598 86.9566 79.6194V71.1971H85.0454V67.3849H86.9523V62.3182H91.9179V67.3849H94.2684V71.1794H91.9179V78.6708C91.9179 80.2696 92.0302 81.2537 92.2549 81.6231C92.4796 81.9925 92.9062 82.1772 93.5347 82.1772C93.7188 82.171 93.9025 82.1547 94.085 82.1284H94.2514L94.2727 85.6924Z" fill="white"/>
<path id="Shape_3" fill-rule="evenodd" clip-rule="evenodd" d="M96.9092 77.4907C96.9092 73.8393 97.4045 71.2742 98.3952 69.7955C99.386 68.3168 101.088 67.5819 103.5 67.591C105.913 67.591 107.614 68.3198 108.605 69.7774C109.596 71.2349 110.091 73.8 110.091 77.4726C110.091 81.1241 109.596 83.6892 108.605 85.1679C107.614 86.6466 105.913 87.3784 103.5 87.3633C101.079 87.3633 99.3745 86.636 98.3867 85.1815C97.3988 83.7269 96.9063 81.1634 96.9092 77.4907ZM101.937 77.4907C101.937 80.1283 102.047 81.779 102.267 82.4429C102.418 83.0251 102.914 83.432 103.486 83.4414C104.057 83.4509 104.565 83.0606 104.733 82.4836C104.953 81.8469 105.063 80.1871 105.063 77.5043C105.063 74.8215 104.953 73.1618 104.733 72.525C104.565 71.9481 104.057 71.5578 103.486 71.5672C102.914 71.5766 102.418 71.9835 102.267 72.5658C102.044 73.2085 101.933 74.8502 101.933 77.4907H101.937Z" fill="white"/>
<path id="Path_30" fill-rule="evenodd" clip-rule="evenodd" d="M114.045 86.0455V67.9404H118.967V70.4744C119.455 69.6742 120.11 68.9756 120.893 68.421C121.595 67.9513 122.416 67.665 123.273 67.5909V73.3317C122.964 73.2706 122.68 73.224 122.421 73.1919C122.177 73.1619 121.931 73.1459 121.685 73.1439C120.957 73.0797 120.255 73.4208 119.888 74.0177C119.552 74.6002 119.384 75.7216 119.384 77.3818V86.0455H114.045Z" fill="white"/>
<path id="Shape_4" fill-rule="evenodd" clip-rule="evenodd" d="M135.216 86.9852L134.924 85.2594C134.34 85.9218 133.639 86.4557 132.861 86.8304C132.099 87.1874 131.275 87.3674 130.442 87.3586C129.195 87.4212 127.985 86.8964 127.136 85.9243C126.321 84.968 125.913 83.6748 125.913 82.0447C125.865 80.7791 126.232 79.5349 126.951 78.5248C127.643 77.6141 128.777 76.8157 130.352 76.1297L131.888 75.5286C133.74 74.8122 134.667 74.0032 134.667 73.1016C134.697 72.6416 134.553 72.1877 134.268 71.8403C133.956 71.5335 133.538 71.377 133.114 71.4077C132.606 71.3656 132.109 71.5799 131.772 71.986C131.446 72.5136 131.295 73.1418 131.343 73.7709V73.903H126.368C126.368 71.778 126.926 70.1934 128.041 69.1491C129.156 68.1049 130.85 67.5858 133.123 67.5918C134.044 67.5801 134.964 67.6809 135.863 67.8924C136.58 68.0559 137.263 68.3518 137.883 68.7666C138.53 69.2071 139.041 69.8408 139.35 70.588C139.636 71.2954 139.779 72.5825 139.779 74.4494V81.735C139.762 82.8649 139.811 83.9948 139.925 85.1183C139.99 85.7745 140.154 86.4154 140.409 87.0171L135.216 86.9852ZM134.577 77.9055C133.555 78.1504 132.599 78.6342 131.776 79.3217C131.2 79.8535 130.877 80.6291 130.893 81.4391C130.865 81.9568 131.018 82.4672 131.321 82.8734C131.616 83.2329 132.048 83.4307 132.497 83.4107C133.117 83.4649 133.719 83.1671 134.079 82.6275C134.411 82.1115 134.577 81.2387 134.577 80.0093V77.9055Z" fill="white"/>
<path id="Shape_5" fill-rule="evenodd" clip-rule="evenodd" d="M157.539 68.0223V84.5172C157.572 85.7721 157.484 87.0274 157.274 88.2642C157.133 89.0075 156.838 89.7109 156.409 90.3266C155.805 91.1083 155.004 91.7049 154.093 92.0512C152.973 92.4654 151.789 92.6629 150.599 92.6335C148.501 92.6335 146.941 92.189 145.92 91.3001C144.898 90.4111 144.387 89.0584 144.387 87.2419H149.309C149.267 87.7728 149.395 88.3033 149.673 88.7532C149.956 89.0895 150.38 89.2662 150.811 89.2288C151.334 89.2869 151.846 89.0463 152.145 88.602C152.393 88.1842 152.517 87.3649 152.517 86.144V83.9927C151.958 84.5315 151.323 84.9811 150.634 85.3262C150.064 85.6015 149.442 85.7456 148.811 85.7484C147.987 85.7616 147.18 85.5081 146.504 85.0239C145.8 84.4996 145.256 83.7793 144.937 82.9482C144.7 82.2848 144.554 81.5906 144.504 80.8858C144.4 79.7303 144.354 78.5702 144.365 77.4099C144.365 76.0409 144.399 74.8215 144.465 73.7518C144.511 72.8777 144.602 72.0068 144.738 71.1426C144.913 70.1516 145.414 69.2524 146.158 68.5957C146.87 67.9382 147.797 67.5796 148.755 67.5912C149.536 67.5867 150.304 67.7954 150.98 68.1957C151.76 68.6836 152.442 69.3203 152.989 70.0714V68.0223H157.539ZM149.4 74.8096V76.1431C149.4 78.5522 149.511 80.0827 149.733 80.7346C149.86 81.3095 150.359 81.7165 150.933 81.7125C151.492 81.7354 151.997 81.3714 152.166 80.8235C152.4 80.2309 152.517 79.0085 152.517 77.1565V76.4365C152.517 74.4422 152.406 73.1858 152.184 72.6672C151.986 72.1642 151.494 71.8499 150.967 71.8894C150.474 71.8637 150.011 72.1343 149.781 72.5828C149.483 73.2831 149.352 74.0467 149.4 74.8096Z" fill="white"/>
<path id="Shape_6" fill-rule="evenodd" clip-rule="evenodd" d="M169.892 80.2831H174.555V80.7366C174.555 82.9347 174.012 84.5886 172.926 85.6983C171.84 86.8079 170.22 87.3628 168.065 87.3628C167.062 87.3773 166.064 87.2132 165.113 86.8775C164.327 86.6147 163.618 86.1467 163.05 85.5169C162.45 84.7597 162.042 83.8548 161.864 82.8864C161.579 81.1557 161.461 79.3992 161.511 77.6435C161.511 74.9918 161.631 73.1414 161.872 72.0923C162.069 71.1395 162.488 70.2539 163.093 69.5162C163.688 68.8599 164.425 68.3664 165.242 68.0785C166.211 67.7382 167.228 67.5741 168.25 67.5932C169.282 67.5684 170.31 67.7468 171.28 68.1193C172.108 68.4303 172.842 68.9689 173.407 69.6794C173.873 70.294 174.205 71.0094 174.379 71.7748C174.619 73.1458 174.717 74.5403 174.671 75.9337V78.2014H166.557C166.55 78.2723 166.55 78.3436 166.557 78.4145C166.517 79.2037 166.497 79.7555 166.497 80.0699C166.497 81.3912 166.63 82.3089 166.896 82.8229C167.17 83.342 167.706 83.6438 168.267 83.5939C168.764 83.6324 169.246 83.4101 169.557 82.9998C169.884 82.4608 170.035 81.8236 169.986 81.1856C169.986 81.0223 169.971 80.7729 169.939 80.4373C169.919 80.3873 169.904 80.3357 169.892 80.2831ZM166.677 74.9404H170.016V74.8452C170.056 74.3705 170.077 74.0349 170.077 73.8384C170.122 73.13 169.973 72.4229 169.647 71.802C169.348 71.3545 168.849 71.1049 168.332 71.1444C167.825 71.1006 167.334 71.3441 167.042 71.7838C166.734 72.44 166.599 73.1716 166.651 73.9019C166.651 74.174 166.651 74.3856 166.651 74.5368C166.651 74.688 166.66 74.8225 166.677 74.9404Z" fill="white"/>
</g>
</svg>
