<svg width="26" height="26" viewBox="0 0 26 26" fill="none" xmlns="http://www.w3.org/2000/svg">
<circle cx="13" cy="13" r="12.5667" fill="white" stroke="#F5F5F5" stroke-width="0.866667"/>
<path fill-rule="evenodd" clip-rule="evenodd" d="M12.9164 18.4705H12.0858L12.6861 15.7029C12.4503 15.637 12.2482 15.4944 12.1171 15.3015C11.986 15.1087 11.9348 14.8785 11.9729 14.6534C12.0109 14.4284 12.1357 14.2236 12.3243 14.077C12.5128 13.9303 12.7523 13.8516 12.9986 13.8554C13.245 13.8516 13.4845 13.9303 13.673 14.077C13.8615 14.2236 13.9863 14.4284 14.0244 14.6534C14.0625 14.8785 14.0112 15.1087 13.8801 15.3015C13.7491 15.4944 13.547 15.637 13.3111 15.7029L13.9115 18.4705H12.9164ZM12.9986 12.6008H10.6809V6.93649C10.2698 7.22928 9.93254 7.60128 9.69254 8.02667C9.45254 8.45207 9.31556 8.92066 9.29112 9.39991V12.6008H8V18.4705C8.00967 18.6612 8.05989 18.8483 8.14779 19.021C8.23569 19.1938 8.35955 19.3489 8.51229 19.4774C8.66502 19.6059 8.84365 19.7053 9.03796 19.77C9.23227 19.8346 9.43846 19.8633 9.64474 19.8542H16.3224C16.5276 19.8663 16.7333 19.8408 16.9279 19.7793C17.1224 19.7178 17.302 19.6214 17.4562 19.4957C17.6105 19.3701 17.7365 19.2175 17.8269 19.0468C17.9174 18.8761 17.9706 18.6906 17.9836 18.5009C17.9893 18.4916 17.9922 18.4811 17.9918 18.4705L18 12.6008H16.8651V9.39991C16.841 8.92086 16.7045 8.4524 16.4649 8.02702C16.2254 7.60164 15.8887 7.22952 15.4781 6.93649V12.6008H12.9986Z" fill="#FF0000"/>
<path d="M9.87498 12.8095C9.87499 11.3413 9.56248 6.64285 13 6.64285C17.209 6.64285 16.0208 12.418 16.125 12.8095" stroke="#FF0000" stroke-width="1.42857"/>
</svg>
